<svg data-v-423bf9ae="" xmlns="http://www.w3.org/2000/svg" viewBox="0 0 188.4366742984634 60" class="font"><!----><!----><defs data-v-423bf9ae=""><linearGradient data-v-423bf9ae="" gradientTransform="rotate(25)" id="c845493e-666c-4ebf-8757-10b7cf04fbcc" x1="0%" y1="0%" x2="100%" y2="0%"><stop data-v-423bf9ae="" offset="0%" style="stop-color: rgb(233, 0, 127); stop-opacity: 1;"></stop><stop data-v-423bf9ae="" offset="100%" style="stop-color: rgb(254, 161, 52); stop-opacity: 1;"></stop></linearGradient></defs><g data-v-423bf9ae="" id="3b4cc455-d126-40a6-95b2-af0f159e4c81" fill="url(#c845493e-666c-4ebf-8757-10b7cf04fbcc)" transform="matrix(5.329091375730886,0,0,5.329091375730886,-0.5329067546814201,-19.611055903189154)"><path d="M1.47 3.68L0.10 4.86L0.10 4.86Q0.74 5.30 1.07 5.91L1.07 5.91L1.07 5.91Q2.21 5.15 2.35 4.96L2.35 4.96L2.35 4.96Q2.50 4.76 2.28 4.31L2.28 4.31L2.28 4.31Q2.07 3.86 1.47 3.68L1.47 3.68ZM0.31 7.76L0.31 7.76Q0.90 7.43 0.70 9.23L0.70 9.23L0.70 9.23Q0.66 11.37 0.71 11.88L0.71 11.88L0.71 11.88Q0.76 12.39 1.32 12.72L1.32 12.72L2.68 11.45L2.69 11.27L2.69 11.27Q2.31 11.29 2.23 10.76L2.23 10.76L2.23 10.76Q2.14 10.23 2.18 8.94L2.18 8.94L2.18 8.94Q2.21 7.65 2.20 7.25L2.20 7.25L2.20 7.25Q2.18 6.85 1.83 6.45L1.83 6.45L0.21 7.57L0.31 7.76ZM4.77 6.42L3.10 7.64L3.25 7.87L3.25 7.87Q3.76 7.56 3.71 8.50L3.71 8.50L3.71 8.50Q3.64 11.46 3.73 11.91L3.73 11.91L3.73 11.91Q3.81 12.37 4.39 12.71L4.39 12.71L5.84 11.46L5.84 11.29L5.84 11.29Q5.38 11.40 5.26 10.78L5.26 10.78L5.26 10.78Q5.13 10.17 5.21 8.27L5.21 8.27L5.21 8.27Q6.08 7.48 6.69 7.71L6.69 7.71L6.69 7.71Q7.29 7.94 7.29 9.37L7.29 9.37L7.29 9.37Q7.25 11.42 7.30 11.91L7.30 11.91L7.30 11.91Q7.35 12.40 7.89 12.76L7.89 12.76L9.31 11.49L9.28 11.33L9.28 11.33Q8.92 11.44 8.80 10.81L8.80 10.81L8.80 10.81Q8.69 10.18 8.76 8.74L8.76 8.74L8.76 8.74Q8.80 7.86 8.61 7.33L8.61 7.33L8.61 7.33Q8.42 6.80 7.80 6.56L7.80 6.56L7.80 6.56Q7.18 6.31 6.64 6.57L6.64 6.57L6.64 6.57Q6.11 6.83 5.77 7.12L5.77 7.12L5.77 7.12Q5.42 7.40 5.24 7.62L5.24 7.62L5.24 7.62Q5.30 6.77 4.77 6.42L4.77 6.42ZM14.66 3.96L13.25 5.48L13.25 5.48Q14.18 5.93 13.87 6.71L13.87 6.71L13.87 6.71Q12.82 6.41 12.33 6.62L12.33 6.62L12.33 6.62Q11.85 6.83 11.23 7.21L11.23 7.21L11.23 7.21Q10.62 7.59 10.14 8.18L10.14 8.18L10.14 8.18Q9.66 8.78 9.59 9.60L9.59 9.60L9.59 9.60Q9.73 11.27 11.74 11.18L11.74 11.18L11.74 11.18Q11.68 11.78 12.15 11.79L12.15 11.79L12.15 11.79Q12.63 11.80 13.67 12.02L13.67 12.02L13.67 12.02Q14.71 12.24 14.50 12.88L14.50 12.88L14.50 12.88Q14.28 13.52 13.16 13.52L13.16 13.52L13.16 13.52Q12.03 13.51 11.22 12.99L11.22 12.99L11.22 12.99Q10.41 12.46 10.63 12.10L10.63 12.10L10.49 11.86L9.06 13.24L9.06 13.24Q9.83 14.63 11.39 14.86L11.39 14.86L11.39 14.86Q12.95 15.09 13.56 14.65L13.56 14.65L13.56 14.65Q14.18 14.21 14.44 13.77L14.44 13.77L14.44 13.77Q14.70 13.32 14.94 13.06L14.94 13.06L14.94 13.06Q15.18 12.80 15.74 11.87L15.74 11.87L15.74 11.87Q15.80 10.71 14.46 10.56L14.46 10.56L14.46 10.56Q13.12 10.41 13.26 10.24L13.26 10.24L13.26 10.24Q13.40 10.06 14.21 9.24L14.21 9.24L14.21 9.24Q15.03 8.42 14.17 7.02L14.17 7.02L14.17 7.02Q15.59 5.89 15.42 5.00L15.42 5.00L15.42 5.00Q15.26 4.12 14.66 3.96L14.66 3.96ZM11.40 7.79L11.40 7.79Q12.64 7.73 13.10 8.73L13.10 8.73L13.10 8.73Q13.55 9.97 12.42 9.99L12.42 9.99L12.42 9.99Q11.38 9.81 11.01 8.85L11.01 8.85L11.01 8.85Q10.74 7.98 11.40 7.79L11.40 7.79ZM22.10 7.64L22.10 7.64L22.23 7.79L22.23 7.79Q23.02 7.17 23.68 8.09L23.68 8.09L23.68 8.09Q24.34 9.02 24.31 9.97L24.31 9.97L24.31 9.97Q24.27 10.92 23.67 11.48L23.67 11.48L23.67 11.48Q23.08 11.55 20.81 6.83L20.81 6.83L20.81 6.83Q20.65 6.42 20.26 6.67L20.26 6.67L18.95 7.97L19.00 8.09L19.00 8.09Q19.39 7.77 19.79 8.44L19.79 8.44L21.17 11.01L20.66 11.41L20.66 11.41Q20.45 11.79 17.87 6.82L17.87 6.82L17.87 6.82Q17.71 6.41 17.32 6.66L17.32 6.66L16.01 7.96L16.06 8.08L16.06 8.08Q16.45 7.77 16.85 8.43L16.85 8.43L18.89 12.28L18.89 12.28Q19.48 13.04 20.07 12.59L20.07 12.59L20.07 12.59Q20.67 12.14 21.37 11.39L21.37 11.39L21.83 12.29L21.83 12.29Q22.42 13.05 23.01 12.60L23.01 12.60L23.01 12.60Q23.60 12.15 24.11 11.56L24.11 11.56L24.11 11.56Q24.61 10.98 25.28 9.89L25.28 9.89L25.28 9.89Q25.94 8.80 25.39 7.68L25.39 7.68L25.39 7.68Q24.83 6.57 24.02 6.29L24.02 6.29L24.02 6.29Q23.20 6.01 22.10 7.64ZM29.13 6.60L29.13 6.60L29.13 6.60Q28.07 6.43 27.14 7.26L27.14 7.26L27.14 7.26Q26.21 8.09 25.95 9.20L25.95 9.20L25.95 9.20Q25.69 10.31 26.11 11.26L26.11 11.26L26.11 11.26Q26.53 12.22 27.67 12.62L27.67 12.62L27.67 12.62Q28.60 12.93 29.61 12.18L29.61 12.18L29.61 12.18Q30.61 11.43 30.93 10.77L30.93 10.77L30.72 10.61L30.72 10.61Q29.34 11.56 28.52 11.24L28.52 11.24L28.52 11.24Q27.71 10.92 27.56 10.51L27.56 10.51L29.05 9.54L29.05 9.54Q30.49 8.65 30.34 7.70L30.34 7.70L30.34 7.70Q30.20 6.76 29.13 6.60ZM27.05 8.64L27.05 8.64L27.05 8.64Q27.03 8.14 27.40 7.78L27.40 7.78L27.40 7.78Q27.77 7.41 28.38 7.78L28.38 7.78L28.38 7.78Q28.99 8.15 28.90 8.76L28.90 8.76L28.90 8.76Q28.80 9.37 27.36 10.14L27.36 10.14L27.36 10.14Q27.20 9.80 27.13 9.47L27.13 9.47L27.13 9.47Q27.06 9.14 27.05 8.64ZM33.41 3.70L32.17 4.68L32.17 4.68Q32.57 4.64 32.40 6.90L32.40 6.90L31.95 6.91L30.97 8.26L31.18 8.45L31.18 8.45Q31.50 8.09 32.35 8.13L32.35 8.13L32.35 8.13Q32.23 11.08 32.36 11.67L32.36 11.67L32.36 11.67Q32.48 12.25 33.16 12.72L33.16 12.72L33.16 12.72Q34.10 12.24 35.41 11.16L35.41 11.16L35.29 10.63L35.29 10.63Q33.82 11.38 33.73 10.75L33.73 10.75L33.73 10.75Q33.65 10.13 33.71 8.13L33.71 8.13L34.57 8.13L35.46 7.02L35.41 6.88L33.74 6.86L33.82 4.57L33.82 4.57Q33.74 3.98 33.41 3.70L33.41 3.70Z"></path></g><!----><!----></svg>